<?xml version="1.0" standalone="no"?>
<!DOCTYPE svg PUBLIC "-//W3C//DTD SVG 20010904//EN"
 "http://www.w3.org/TR/2001/REC-SVG-20010904/DTD/svg10.dtd">
<svg version="1.0" xmlns="http://www.w3.org/2000/svg"
 width="3200.000000pt" height="3200.000000pt" viewBox="0 0 3200.000000 3200.000000"
 preserveAspectRatio="xMidYMid meet">
<metadata>
Created by potrace 1.14, written by Peter Selinger 2001-2017
</metadata>
<g transform="translate(0.000000,3200.000000) scale(0.100000,-0.100000)"
fill="#000000" stroke="none">
<path d="M0 16000 l0 -16000 16000 0 16000 0 0 16000 0 16000 -16000 0 -16000
0 0 -16000z m25073 5065 c16 -22 16 -26 3 -31 -22 -8 -36 4 -36 32 0 30 10 30
33 -1z m-19867 -920 c4 -8 13 -15 20 -15 8 0 17 7 20 15 8 20 34 19 49 -1 11
-15 31 -16 211 -7 176 8 201 7 214 -7 13 -13 34 -15 128 -10 105 5 114 4 127
-15 15 -20 15 -20 31 3 19 26 71 31 80 7 8 -19 80 -20 91 -1 13 21 60 26 78 7
17 -20 84 -16 92 5 7 19 42 18 49 -1 9 -22 80 -20 94 3 10 16 10 16 20 0 15
-25 47 -22 61 4 11 20 13 20 24 5 15 -21 65 -23 65 -2 0 20 37 19 48 -1 8 -14
24 -16 100 -12 69 3 93 1 96 -9 4 -9 27 -13 75 -13 45 0 71 -4 73 -12 3 -8 22
-11 55 -9 40 2 52 -1 57 -15 5 -13 16 -16 56 -12 35 4 50 1 54 -9 3 -7 16 -13
30 -13 13 0 27 -7 30 -15 4 -11 17 -15 42 -13 24 1 39 -3 45 -14 5 -9 17 -14
28 -11 11 3 21 -2 24 -11 4 -9 16 -16 28 -16 12 0 39 -18 60 -40 22 -22 48
-40 59 -40 11 0 23 -7 27 -15 3 -9 14 -15 24 -13 22 4 179 -136 179 -160 0
-14 97 -111 113 -112 4 0 7 -9 7 -21 0 -11 14 -33 31 -48 23 -22 29 -34 24
-50 -4 -14 0 -26 14 -38 12 -10 21 -26 21 -36 0 -10 14 -30 30 -44 22 -18 30
-33 30 -58 0 -20 6 -35 15 -39 8 -3 15 -15 15 -26 0 -11 7 -23 15 -26 8 -4 15
-16 15 -29 0 -13 7 -25 15 -29 8 -3 15 -15 15 -26 0 -11 7 -23 15 -26 11 -5
15 -21 15 -60 0 -41 4 -54 15 -54 8 0 15 -9 15 -20 0 -11 -7 -23 -15 -26 -8
-4 -15 -12 -15 -19 0 -7 7 -15 15 -19 10 -4 15 -20 15 -52 0 -32 5 -51 17 -59
13 -10 17 -36 20 -146 1 -74 5 -158 7 -186 4 -41 1 -53 -10 -53 -11 0 -14 -16
-14 -68 0 -40 -5 -73 -12 -80 -8 -8 -11 -38 -9 -86 2 -62 0 -76 -15 -84 -11
-6 -15 -16 -11 -26 4 -10 1 -19 -8 -22 -10 -4 -15 -20 -15 -45 0 -26 -5 -42
-15 -45 -8 -4 -15 -16 -15 -29 0 -12 -6 -28 -14 -34 -8 -7 -12 -21 -9 -31 4
-14 0 -20 -11 -20 -11 0 -16 -9 -16 -30 0 -20 -5 -30 -15 -30 -10 0 -15 -10
-15 -29 0 -16 -6 -31 -14 -34 -9 -3 -12 -14 -9 -25 3 -12 -1 -22 -11 -25 -9
-4 -16 -16 -16 -28 0 -13 -17 -39 -39 -61 -22 -21 -41 -48 -43 -61 -2 -12 -10
-22 -18 -22 -8 0 -47 -34 -86 -75 -39 -41 -104 -110 -145 -153 -41 -43 -75
-83 -77 -88 -2 -5 -14 -9 -27 -9 -12 0 -25 -7 -29 -15 -3 -8 -17 -15 -31 -15
-16 0 -25 -6 -25 -15 0 -11 -11 -15 -37 -15 -31 0 -42 -6 -58 -30 -18 -27 -25
-30 -72 -30 -40 0 -53 -4 -53 -15 0 -11 -11 -15 -39 -15 -25 0 -41 -5 -45 -15
-7 -20 -36 -19 -52 3 -13 16 -15 16 -28 -1 -13 -16 -35 -19 -188 -24 -95 -2
-235 -8 -311 -11 -131 -7 -140 -6 -149 12 -10 19 -11 19 -28 -2 -16 -19 -28
-22 -89 -22 -54 0 -73 4 -77 15 -4 8 -12 15 -20 15 -8 0 -14 -7 -14 -15 0 -19
-16 -20 -27 -2 -7 11 -44 12 -203 6 -107 -4 -214 -8 -237 -8 -27 -1 -43 -6
-43 -13 -1 -7 -14 -24 -30 -37 l-30 -25 6 -170 c2 -94 6 -192 9 -218 3 -37 1
-48 -10 -48 -8 0 -15 -9 -15 -20 0 -11 7 -20 15 -20 12 0 15 -14 15 -62 0 -34
-6 -68 -13 -77 -9 -12 -11 -59 -7 -188 5 -168 6 -173 29 -189 13 -10 31 -25
39 -35 13 -15 27 -17 76 -14 34 3 132 7 219 10 134 4 157 3 157 -10 0 -23 106
-21 119 2 8 15 11 15 26 3 15 -12 19 -12 31 4 13 18 14 18 20 2 6 -16 21 -17
142 -15 99 2 137 0 140 -9 2 -7 21 -12 42 -12 20 0 43 -6 49 -13 8 -11 35 -13
113 -9 89 4 103 3 114 -13 11 -14 22 -17 59 -12 35 5 47 3 51 -8 4 -10 20 -15
44 -15 25 0 40 -5 44 -16 4 -10 13 -13 26 -9 13 4 22 1 26 -9 4 -11 19 -16 45
-16 27 0 42 -5 46 -16 3 -9 13 -14 24 -11 10 3 23 -1 30 -9 6 -8 20 -14 31
-14 10 0 21 -7 24 -15 4 -10 20 -15 45 -15 26 0 42 -5 45 -15 4 -10 13 -13 25
-10 14 5 27 -3 46 -24 15 -17 37 -31 49 -31 12 0 24 -6 27 -14 4 -9 14 -12 26
-9 14 3 23 0 27 -11 3 -9 17 -16 30 -16 19 0 24 -5 24 -25 0 -14 3 -25 8 -25
4 0 28 -19 53 -42 25 -24 69 -64 97 -89 28 -26 52 -57 54 -70 2 -18 9 -24 28
-24 17 0 26 -6 28 -20 3 -11 35 -49 73 -85 46 -43 69 -73 69 -88 0 -12 5 -22
10 -22 17 0 50 -39 50 -60 0 -11 3 -20 8 -20 4 0 24 -16 45 -35 29 -27 37 -41
37 -69 0 -25 4 -36 15 -36 9 0 15 -9 15 -25 0 -14 7 -28 15 -31 8 -4 15 -16
15 -29 0 -13 7 -25 15 -29 8 -3 15 -17 15 -31 0 -16 6 -25 15 -25 11 0 15 -11
15 -40 0 -29 4 -40 15 -40 11 0 15 -12 15 -50 0 -40 4 -51 21 -60 15 -9 19
-18 15 -35 -7 -29 2 -55 20 -55 10 0 14 -15 14 -55 0 -42 3 -55 15 -55 12 0
15 -19 15 -108 0 -97 2 -108 20 -120 12 -7 18 -18 14 -24 -4 -6 1 -17 11 -24
17 -12 19 -34 23 -196 3 -159 6 -185 21 -198 23 -19 27 -98 5 -107 -7 -3 -14
-16 -14 -29 0 -12 -6 -27 -13 -31 -11 -6 -13 -45 -8 -198 l6 -190 -29 -27
c-28 -26 -29 -28 -24 -113 3 -66 1 -88 -9 -92 -7 -3 -13 -16 -13 -29 0 -12 -7
-27 -17 -32 -12 -7 -14 -17 -10 -41 5 -23 3 -33 -8 -37 -10 -4 -15 -20 -15
-45 0 -25 -6 -41 -17 -47 -9 -6 -14 -16 -10 -25 3 -9 -1 -21 -9 -27 -8 -7 -14
-30 -14 -51 0 -28 -4 -39 -15 -39 -10 0 -15 -10 -15 -29 0 -17 -6 -31 -16 -35
-10 -4 -13 -13 -9 -26 4 -13 1 -22 -9 -26 -9 -3 -16 -15 -16 -26 0 -12 -11
-31 -25 -44 -14 -13 -25 -32 -25 -44 0 -11 -7 -23 -15 -26 -8 -4 -15 -16 -15
-28 0 -12 -13 -35 -29 -50 -16 -16 -27 -35 -24 -42 3 -8 -9 -26 -26 -41 -17
-15 -31 -36 -31 -47 0 -10 -18 -37 -40 -58 -22 -22 -40 -48 -40 -59 0 -11 -7
-22 -15 -25 -10 -4 -13 -13 -10 -25 7 -22 -27 -59 -54 -59 -11 0 -21 -4 -23
-9 -1 -5 -43 -52 -92 -105 -73 -78 -93 -95 -111 -90 -17 4 -33 -6 -71 -46 -26
-28 -54 -48 -61 -46 -7 3 -18 -4 -23 -15 -8 -13 -17 -18 -30 -14 -13 4 -22 -1
-30 -15 -8 -15 -17 -19 -36 -14 -21 5 -31 0 -55 -29 -25 -31 -34 -35 -59 -31
-22 5 -31 2 -39 -15 -7 -12 -22 -21 -35 -21 -13 0 -26 -7 -30 -15 -3 -9 -18
-15 -40 -15 -21 0 -36 -6 -40 -15 -4 -11 -20 -15 -55 -15 -34 0 -51 -4 -55
-15 -3 -9 -19 -15 -41 -15 -22 0 -38 -6 -41 -15 -5 -11 -24 -15 -81 -15 -58 0
-79 -4 -87 -16 -18 -23 -181 -32 -189 -10 -10 25 -83 21 -97 -4 -6 -11 -16
-17 -22 -14 -6 4 -17 -1 -24 -11 -19 -26 -263 -35 -283 -11 -18 22 -48 20 -60
-3 -9 -16 -23 -19 -101 -20 -77 -1 -90 1 -90 15 0 14 -13 15 -112 10 -357 -18
-418 -19 -424 -2 -9 22 -80 22 -92 -1 -13 -23 -120 -29 -136 -8 -10 13 -43 14
-251 7 -203 -7 -242 -6 -252 6 -13 15 -43 10 -43 -8 0 -5 -4 -10 -10 -10 -5 0
-10 7 -10 15 0 10 -10 15 -30 15 -19 0 -30 -5 -30 -14 0 -9 -12 -16 -32 -18
-27 -2 -40 4 -68 32 -31 30 -36 42 -38 90 -2 38 -8 59 -20 68 -16 12 -16 14 1
24 16 9 18 21 16 101 -2 64 0 92 9 95 19 6 16 161 -3 168 -19 8 -19 23 -2 38
13 11 11 139 -15 848 -3 77 -1 99 10 103 12 5 13 38 7 211 -6 174 -5 207 8
217 12 10 13 43 6 227 -27 708 -29 804 -14 813 23 12 20 102 -3 119 -15 11
-18 32 -21 161 -2 101 1 147 8 147 7 0 11 33 11 94 0 66 4 97 13 105 19 15 10
162 -9 174 -18 11 -18 67 1 81 12 9 13 39 7 196 -7 148 -6 187 5 193 18 11 16
34 -2 41 -19 7 -22 152 -4 158 8 3 11 49 10 153 -2 169 -7 214 -27 222 -19 7
-18 40 2 51 15 8 15 30 8 210 -8 186 -8 203 9 217 22 19 22 30 -4 54 -19 18
-19 20 -3 29 15 8 16 23 12 141 -5 114 -8 134 -24 146 -18 13 -18 14 -1 20 21
9 22 31 2 39 -19 7 -20 62 -1 73 12 7 13 42 7 223 -6 181 -5 217 7 227 12 10
13 48 5 255 -8 198 -7 245 4 254 18 16 18 140 -1 151 -19 12 -26 61 -10 74 19
16 18 88 -1 95 -21 8 -20 70 1 78 14 5 15 23 8 141 -6 119 -5 135 10 141 20 8
21 34 1 34 -24 0 -30 29 -9 49 20 18 20 60 1 534 -4 96 -3 117 9 117 17 0 17
-13 3 369 -10 270 -10 305 4 312 12 7 14 22 10 70 -5 51 -3 63 10 71 10 5 17
19 17 32 0 22 3 23 98 24 53 1 161 5 240 8 132 6 144 5 158 -12 14 -18 15 -18
30 4 19 25 42 29 50 7z m12060 -20 c4 -8 18 -15 34 -15 16 0 30 7 34 15 3 9
19 15 41 15 34 0 35 -1 35 -40 0 -28 4 -40 14 -40 20 0 27 -168 9 -186 -19
-19 -16 -61 5 -69 16 -6 16 -7 -1 -20 -17 -12 -18 -29 -10 -271 4 -143 8 -266
8 -274 0 -10 -12 -16 -35 -18 -19 -2 -39 -10 -43 -18 -11 -19 -43 -18 -51 2
-6 15 -26 16 -199 9 -148 -5 -194 -10 -200 -21 -4 -8 -19 -14 -32 -14 -16 0
-25 -6 -25 -15 0 -9 -7 -18 -15 -21 -8 -4 -15 -16 -15 -29 0 -13 -7 -26 -16
-29 -13 -5 -14 -19 -8 -96 6 -78 4 -90 -10 -96 -20 -8 -21 -30 -2 -41 8 -4 16
-19 18 -33 2 -21 8 -24 31 -22 19 2 27 -2 27 -13 0 -17 61 -18 355 -6 224 10
215 17 216 -163 1 -72 4 -196 8 -276 5 -111 4 -149 -6 -161 -18 -22 -16 -49 5
-65 16 -12 16 -13 0 -19 -13 -5 -18 -18 -18 -44 0 -29 -7 -44 -32 -68 l-33
-31 -183 -6 c-158 -6 -183 -4 -188 9 -9 21 -51 19 -64 -4 -6 -13 -17 -17 -30
-14 -11 3 -36 2 -56 -1 -32 -6 -35 -10 -30 -31 4 -16 1 -27 -10 -33 -15 -9
-16 -37 -5 -352 9 -298 9 -344 -4 -354 -12 -9 -13 -37 -7 -181 7 -136 6 -172
-5 -181 -20 -17 -18 -154 2 -154 19 0 20 -57 2 -79 -11 -13 -12 -60 -5 -246
32 -893 35 -1040 21 -1048 -12 -7 -14 -39 -9 -190 4 -100 9 -226 12 -279 5
-88 4 -98 -11 -98 -16 0 -17 -13 -11 -137 19 -432 19 -474 4 -486 -13 -10 -14
-40 -7 -217 4 -113 8 -233 8 -267 l1 -63 43 0 c36 0 46 5 70 35 16 20 32 33
38 30 12 -8 90 73 87 90 -3 11 99 128 230 262 23 24 42 53 42 63 0 10 11 27
24 37 13 11 26 30 28 44 2 13 11 25 21 27 17 3 115 99 196 193 22 24 43 39 58
39 19 0 23 5 23 30 0 20 5 30 15 30 11 0 15 11 15 35 0 46 26 87 51 80 10 -4
21 1 27 11 7 13 33 17 152 21 125 5 144 3 152 -11 12 -22 35 -20 55 4 21 24
83 28 83 5 0 -18 9 -18 339 -5 216 9 246 9 253 -5 12 -20 48 -19 64 3 13 16
15 16 24 0 9 -14 24 -15 112 -11 77 4 106 9 115 21 11 14 15 14 33 -3 29 -26
26 -55 -5 -55 -14 0 -25 -4 -25 -8 0 -14 -156 -172 -170 -172 -7 0 -29 -18
-49 -39 -101 -109 -251 -270 -291 -312 -25 -26 -83 -88 -129 -138 -47 -51 -91
-91 -102 -91 -10 0 -22 -6 -26 -14 -4 -8 -65 -74 -135 -148 -70 -74 -152 -161
-182 -194 -30 -32 -72 -78 -94 -101 -21 -24 -46 -43 -55 -43 -33 0 -57 -37
-57 -86 0 -43 4 -50 45 -86 30 -26 45 -48 45 -64 0 -13 6 -24 13 -24 22 0 47
-39 47 -75 0 -24 5 -35 15 -35 9 0 15 -9 15 -23 0 -14 12 -32 30 -45 19 -15
30 -31 30 -47 0 -14 5 -25 10 -25 17 0 50 -39 50 -59 0 -10 7 -21 15 -25 8 -3
15 -15 15 -26 0 -11 7 -23 15 -26 8 -4 15 -17 15 -30 0 -13 3 -24 8 -24 15 0
82 -70 82 -85 0 -9 14 -28 30 -42 17 -13 30 -34 30 -44 0 -11 7 -22 15 -25 8
-4 15 -16 15 -28 0 -12 12 -29 30 -41 16 -11 30 -29 30 -40 1 -11 14 -31 30
-45 17 -13 30 -32 30 -42 0 -10 7 -21 15 -24 8 -4 15 -15 15 -26 0 -10 14 -31
30 -45 17 -13 30 -31 30 -39 0 -9 14 -28 31 -44 17 -15 28 -33 25 -39 -4 -6 2
-18 14 -28 11 -10 20 -25 20 -34 0 -9 7 -19 15 -23 8 -3 15 -15 15 -26 0 -12
14 -33 30 -47 17 -13 27 -29 24 -34 -3 -5 17 -30 45 -55 28 -25 48 -50 45 -56
-3 -5 8 -22 25 -37 17 -15 31 -37 31 -48 0 -12 7 -23 15 -27 8 -3 15 -14 15
-24 0 -10 14 -28 30 -40 19 -15 30 -31 30 -47 0 -16 6 -25 15 -25 9 0 15 -9
15 -25 0 -14 7 -28 15 -31 8 -4 15 -17 15 -30 0 -13 6 -24 13 -24 17 0 47 -36
47 -56 0 -8 14 -27 30 -41 17 -13 30 -33 30 -42 0 -9 14 -27 30 -39 25 -19 30
-30 30 -62 l0 -40 -49 0 c-40 0 -50 3 -54 20 -7 26 -43 26 -59 0 -15 -24 -37
-26 -53 -4 -11 15 -42 15 -369 4 -340 -12 -358 -11 -370 6 -13 17 -14 17 -27
-4 -16 -26 -32 -28 -49 -7 -7 8 -23 15 -35 15 -13 0 -25 -7 -29 -15 -7 -20
-26 -19 -26 1 0 14 -13 15 -97 12 -71 -2 -97 0 -100 10 -3 6 -16 12 -29 12
-18 0 -24 5 -24 23 0 13 -12 30 -30 42 -18 12 -30 29 -30 41 0 12 -7 24 -15
28 -8 3 -15 17 -15 31 0 16 -6 25 -15 25 -9 0 -15 9 -15 25 0 14 -7 28 -15 31
-8 4 -15 17 -15 30 0 13 -4 24 -10 24 -17 0 -50 39 -50 59 0 10 -7 21 -15 25
-8 3 -15 17 -15 31 0 14 -4 25 -10 25 -17 0 -50 39 -50 59 0 10 -7 21 -15 25
-8 3 -15 17 -15 31 0 16 -6 25 -15 25 -11 0 -15 11 -15 40 0 22 -3 40 -7 40
-17 0 -83 70 -83 88 0 11 -7 22 -15 26 -8 3 -15 17 -15 31 0 16 -6 25 -15 25
-11 0 -15 11 -15 40 0 22 -4 40 -10 40 -17 0 -50 39 -50 59 0 10 -7 21 -15 25
-8 3 -15 17 -15 31 0 16 -6 25 -15 25 -9 0 -15 9 -15 24 0 13 -7 26 -15 30 -8
3 -15 17 -15 31 0 14 -4 25 -9 25 -19 0 -81 68 -81 89 0 12 -6 21 -15 21 -8 0
-15 7 -15 15 0 11 -12 15 -51 15 -43 0 -56 -5 -75 -26 -13 -14 -24 -34 -24
-45 0 -14 -7 -19 -25 -19 -14 0 -25 -4 -25 -8 0 -5 -20 -29 -44 -54 l-45 -45
9 -254 c5 -140 10 -287 12 -328 2 -52 -1 -76 -10 -79 -17 -5 -15 -59 3 -66 20
-7 19 -42 -1 -50 -14 -5 -15 -25 -9 -171 l7 -165 -62 0 c-42 0 -67 -5 -74 -14
-17 -21 -154 -28 -165 -8 -7 13 -51 13 -367 2 -197 -7 -363 -14 -367 -17 -4
-3 -18 6 -31 19 -22 23 -23 28 -35 402 -10 323 -9 380 3 390 14 11 9 249 -22
1026 -7 175 -6 207 7 216 12 9 13 38 8 172 -5 134 -3 161 9 166 21 8 19 105
-2 120 -23 18 -32 184 -10 192 21 8 20 44 -1 60 -16 12 -16 15 -3 23 12 9 14
32 11 131 -3 103 -1 121 13 126 22 8 20 39 -3 61 -15 15 -18 36 -20 126 -2 80
1 113 11 125 14 17 12 195 -6 585 -4 98 -3 117 9 117 12 0 15 17 15 80 0 68
-3 83 -20 97 -18 16 -20 31 -21 148 -1 71 -4 202 -8 290 l-7 160 28 28 29 28
-15 477 c-9 262 -17 512 -19 555 -3 59 0 80 10 84 9 4 13 26 13 74 0 58 -3 70
-20 79 -24 13 -26 38 -4 47 14 5 15 27 13 170 -3 131 -1 166 10 173 21 12 8
270 -14 286 -9 7 -15 27 -15 48 0 24 -5 36 -14 36 -8 0 -17 7 -20 16 -6 15
-24 16 -167 9 -131 -6 -163 -4 -170 6 -5 8 -19 14 -31 14 -23 0 -23 1 -29 185
-5 156 -4 187 9 197 15 13 10 43 -8 43 -16 0 -12 40 5 46 20 8 19 44 -2 60
-16 12 -16 15 -3 23 18 12 15 83 -5 94 -21 11 -20 96 0 104 9 3 15 15 13 26
-2 15 3 23 17 25 11 3 25 12 32 21 11 15 13 15 25 -1 12 -15 28 -16 151 -11
102 4 137 9 137 19 0 7 12 14 28 16 20 2 27 9 27 24 1 12 7 29 14 38 11 13 13
54 8 201 -4 160 -3 186 10 194 11 6 14 18 11 40 -3 21 1 36 12 46 13 12 16 27
13 59 -5 38 -2 45 27 69 22 19 30 32 25 46 -3 12 0 21 10 25 10 3 15 18 15 41
0 27 8 44 30 67 23 23 29 35 24 54 -8 29 23 64 56 64 11 0 20 4 20 9 0 17 126
141 143 141 10 0 20 7 23 15 4 8 15 15 26 15 10 0 31 14 45 30 13 17 34 30 44
30 11 0 22 7 25 15 4 11 21 15 55 15 35 0 51 4 55 15 5 12 25 15 95 15 73 0
90 3 101 18 11 16 33 18 163 21 149 4 504 16 538 19 10 1 20 -5 23 -13z m9417
-235 c62 0 78 3 86 18 8 14 12 15 22 5 7 -7 20 -13 29 -13 8 -1 25 -9 37 -19
20 -17 22 -28 24 -145 2 -93 -1 -130 -10 -135 -9 -6 -12 -44 -10 -141 2 -115
5 -134 21 -150 18 -16 18 -18 2 -24 -15 -6 -16 -24 -10 -213 7 -194 9 -207 29
-225 21 -18 36 -19 251 -13 211 5 230 4 242 -12 13 -17 15 -17 28 0 14 18 16
18 40 2 24 -16 26 -23 26 -90 0 -64 -2 -73 -20 -78 -18 -5 -19 -11 -15 -64 2
-32 7 -137 10 -234 4 -151 3 -178 -10 -183 -22 -8 -18 -45 7 -66 22 -17 22
-19 5 -37 -9 -11 -17 -35 -17 -55 l0 -35 -157 -6 c-131 -5 -160 -4 -169 9 -15
19 -60 18 -68 -1 -4 -11 -22 -15 -74 -15 -60 0 -73 -3 -97 -26 l-28 -26 7
-200 c7 -186 6 -201 -11 -214 -17 -13 -17 -15 1 -29 25 -19 30 -65 9 -80 -15
-11 -15 -42 -4 -355 10 -307 10 -345 -4 -352 -21 -12 -19 -38 7 -65 21 -22 21
-23 3 -43 -16 -17 -17 -35 -13 -162 l4 -143 53 -52 54 -53 240 10 c132 6 242
8 245 6 2 -3 6 -74 8 -158 2 -84 6 -181 9 -215 3 -51 1 -63 -10 -63 -21 0 -19
-50 3 -66 16 -13 16 -15 0 -25 -28 -16 -25 -112 4 -138 19 -19 20 -21 4 -27
-15 -6 -17 -20 -15 -96 1 -49 0 -90 -2 -93 -2 -2 -149 -9 -327 -16 -301 -11
-324 -10 -335 5 -15 21 -67 12 -67 -10 0 -22 -208 -20 -216 1 -4 10 -13 13
-25 10 -12 -4 -21 -1 -25 9 -3 9 -17 16 -30 16 -12 0 -27 7 -32 16 -8 14 -22
16 -87 12 -59 -4 -78 -2 -82 8 -3 9 -21 14 -44 14 -26 0 -42 5 -45 15 -4 10
-13 13 -25 10 -12 -4 -21 -1 -25 9 -3 9 -17 16 -30 16 -27 0 -64 32 -64 55 0
8 -21 34 -47 57 -25 24 -57 53 -70 64 -18 16 -23 32 -23 67 0 36 -4 49 -20 57
-14 8 -19 17 -15 30 4 13 -1 22 -14 29 -17 10 -19 23 -20 153 -2 115 -5 143
-17 153 -17 12 -18 16 -34 519 -10 290 -9 309 7 322 17 13 17 15 -1 29 -17 13
-18 17 -5 32 13 16 14 61 3 368 -11 303 -11 351 2 361 10 8 14 32 14 83 0 59
-3 74 -20 88 -11 10 -20 25 -20 35 0 23 -35 58 -57 58 -9 0 -24 6 -32 13 -12
10 -46 12 -141 8 l-125 -6 -36 33 -36 33 -2 127 c-1 70 -6 227 -11 350 -11
264 -11 262 81 262 154 0 329 14 329 25 0 7 7 15 15 19 8 3 15 16 15 30 0 13
7 26 15 29 12 5 13 26 8 126 -5 105 -4 121 10 127 14 5 15 21 10 112 -4 80 -9
110 -21 120 -14 11 -14 13 3 26 16 11 17 22 12 75 -6 50 -4 61 8 61 11 0 15
12 15 45 0 33 -4 45 -15 45 -20 0 -19 19 1 27 13 5 14 19 8 97 -6 81 -4 93 12
108 16 14 64 18 329 27 283 10 311 10 322 -5 17 -23 138 -11 148 14 6 16 7 16
19 0 11 -14 28 -18 89 -18z m-3467 -952 c5 -8 58 -9 195 -5 168 6 189 5 197
-10 7 -12 18 -14 40 -10 20 4 34 1 42 -8 17 -20 89 -20 96 0 8 20 40 19 48 -1
4 -11 13 -14 27 -11 12 3 22 0 26 -9 4 -10 24 -14 74 -14 64 0 70 -2 91 -30
19 -26 26 -29 55 -24 25 5 34 2 39 -10 3 -9 16 -16 28 -16 13 0 33 -11 46 -25
13 -14 34 -25 47 -25 14 0 23 -6 23 -15 0 -9 10 -15 26 -15 19 0 42 -16 81
-56 30 -30 61 -53 68 -51 7 3 47 -28 89 -68 42 -40 100 -94 127 -118 31 -28
48 -50 44 -57 -4 -7 7 -24 28 -41 22 -18 34 -35 31 -44 -4 -8 1 -18 10 -21 9
-3 16 -17 16 -30 0 -13 9 -28 20 -34 11 -6 17 -16 14 -22 -4 -6 1 -17 11 -25
13 -9 20 -28 22 -60 1 -29 8 -50 18 -55 8 -5 15 -20 15 -32 0 -13 7 -26 15
-30 11 -4 15 -20 15 -55 0 -34 4 -51 15 -55 11 -4 15 -20 15 -55 0 -34 4 -51
15 -55 11 -4 15 -20 15 -55 0 -32 5 -51 14 -54 8 -3 16 -24 18 -49 4 -34 0
-48 -16 -65 -19 -20 -31 -23 -105 -23 -60 0 -87 4 -95 14 -16 21 -466 3 -479
-19 -11 -20 -27 -19 -27 1 0 15 -15 16 -150 9 l-150 -7 -30 30 c-16 17 -30 39
-30 49 0 10 -8 23 -19 30 -13 8 -17 19 -14 37 7 36 -5 76 -22 76 -9 0 -15 9
-15 24 0 13 -7 26 -15 30 -8 3 -15 17 -15 31 0 14 -4 25 -8 25 -4 0 -34 25
-66 55 -31 30 -66 55 -76 55 -10 0 -27 11 -38 25 -17 21 -28 25 -70 25 -37 0
-54 5 -60 16 -7 13 -19 16 -56 12 -35 -4 -49 -2 -53 8 -8 21 -153 20 -153 -1
0 -9 -9 -15 -24 -15 -13 0 -26 -7 -30 -15 -3 -8 -17 -15 -31 -15 -16 0 -25 -6
-25 -15 0 -11 -11 -15 -39 -15 -25 0 -41 -5 -45 -15 -3 -8 -17 -15 -31 -15
-14 0 -25 -6 -25 -12 0 -7 -25 -38 -55 -68 -30 -30 -55 -58 -55 -62 0 -5 -7
-8 -15 -8 -10 0 -15 -10 -15 -26 0 -16 -11 -36 -25 -50 -14 -13 -25 -32 -25
-42 0 -11 -7 -22 -15 -26 -8 -3 -15 -16 -15 -30 0 -13 -7 -27 -16 -30 -13 -5
-15 -14 -10 -41 5 -27 3 -37 -9 -42 -14 -5 -16 -19 -14 -85 3 -58 0 -81 -10
-87 -11 -7 -12 -61 -4 -311 8 -267 11 -304 26 -315 12 -9 17 -27 17 -64 0 -39
4 -51 15 -51 11 0 15 -11 15 -39 0 -25 5 -41 15 -45 8 -3 15 -17 15 -31 0 -16
6 -25 15 -25 9 0 15 -9 15 -24 0 -13 7 -26 15 -30 8 -3 15 -17 15 -31 0 -21 5
-25 30 -25 23 0 30 -4 30 -20 0 -25 34 -60 59 -60 11 0 31 -14 45 -31 23 -27
31 -30 60 -25 25 5 35 3 40 -9 3 -8 16 -15 30 -15 13 0 27 -7 30 -16 4 -10 13
-13 26 -9 13 4 22 1 26 -9 5 -13 27 -16 130 -16 109 0 124 2 133 18 7 14 18
17 39 14 22 -3 33 2 44 17 9 13 21 19 31 15 10 -3 20 2 27 16 7 14 17 19 27
16 10 -4 21 2 30 14 8 11 19 18 24 14 13 -8 59 42 59 64 0 10 18 35 40 57 32
32 39 47 40 78 0 27 4 37 16 37 12 0 15 6 11 21 -4 15 3 30 25 51 27 27 30 34
26 87 -2 46 1 61 16 76 24 24 105 29 113 7 5 -13 33 -14 211 -8 170 6 206 5
215 -7 10 -11 44 -13 197 -7 146 5 187 3 196 -7 6 -7 25 -13 42 -13 36 0 72
-26 72 -52 0 -9 8 -22 18 -28 16 -10 16 -10 0 -20 -10 -6 -18 -20 -18 -30 0
-10 -7 -23 -17 -28 -12 -7 -14 -17 -10 -41 5 -23 3 -33 -8 -37 -10 -4 -15 -20
-15 -45 0 -25 -6 -41 -16 -47 -13 -7 -16 -19 -12 -54 5 -45 -15 -88 -42 -88
-7 0 -10 -13 -8 -35 2 -27 -4 -42 -25 -64 -19 -20 -27 -40 -27 -64 0 -22 -6
-37 -16 -41 -10 -4 -13 -13 -9 -26 4 -13 1 -22 -9 -26 -9 -3 -16 -16 -16 -28
-1 -11 -19 -39 -40 -61 -22 -22 -40 -47 -40 -55 0 -22 -150 -182 -165 -176 -6
2 -24 -11 -39 -29 -17 -20 -34 -31 -43 -28 -8 3 -21 -3 -29 -15 -9 -13 -21
-18 -34 -15 -17 5 -20 0 -20 -26 0 -30 -2 -31 -40 -31 -26 0 -40 -5 -40 -13 0
-22 -39 -47 -73 -47 -21 0 -36 -7 -45 -20 -6 -11 -18 -17 -26 -14 -8 3 -19 -3
-25 -14 -7 -14 -18 -18 -40 -14 -22 3 -32 -1 -41 -17 -8 -15 -17 -20 -30 -16
-12 4 -22 0 -28 -11 -7 -12 -25 -19 -58 -20 -30 -2 -51 -9 -56 -19 -5 -8 -18
-15 -29 -15 -11 0 -22 -7 -25 -15 -5 -12 -26 -15 -100 -15 -72 0 -94 -3 -94
-14 0 -10 -34 -15 -147 -20 -128 -6 -149 -5 -159 8 -15 21 -51 20 -62 0 -13
-23 -132 -30 -132 -8 0 10 -14 14 -53 14 -29 0 -58 5 -64 11 -8 8 -45 11 -102
10 -77 -2 -92 0 -97 14 -5 13 -15 15 -41 10 -25 -4 -35 -2 -39 10 -3 8 -17 15
-30 15 -12 0 -27 7 -32 17 -7 12 -18 14 -40 10 -20 -4 -34 -1 -42 8 -7 8 -21
15 -32 15 -10 0 -21 7 -24 15 -4 8 -16 15 -29 15 -12 0 -34 11 -49 25 -15 14
-34 25 -43 25 -9 0 -34 18 -55 40 -22 22 -47 40 -57 40 -9 0 -44 26 -78 58
-33 31 -108 102 -167 157 -58 54 -106 107 -106 116 0 9 -7 19 -15 23 -8 3 -15
16 -15 28 0 14 -11 31 -30 43 -18 12 -30 29 -30 41 0 12 -7 24 -15 28 -8 3
-15 17 -15 31 0 16 -6 25 -15 25 -11 0 -15 11 -15 39 0 25 -5 41 -15 45 -8 3
-15 17 -15 31 0 16 -6 25 -15 25 -9 0 -15 9 -15 24 0 13 -7 26 -15 30 -12 4
-15 24 -15 86 0 64 -3 80 -15 80 -11 0 -15 11 -15 36 0 23 -6 41 -17 49 -19
14 -18 13 -21 158 -2 79 -5 97 -17 97 -9 0 -15 9 -15 21 0 12 -6 27 -14 33
-21 17 -28 236 -8 244 12 4 13 29 7 159 -6 136 -5 153 9 153 11 0 16 9 16 30
0 17 5 30 10 30 6 0 10 38 10 94 0 71 4 97 15 106 11 9 14 23 9 45 -4 24 -2
34 10 38 11 4 16 19 16 46 0 26 5 41 16 45 10 4 13 13 9 26 -4 13 -1 22 9 26
12 5 16 20 16 60 0 43 3 54 16 54 12 0 15 6 10 25 -5 18 -2 27 9 31 8 4 15 17
15 29 0 14 13 34 31 49 26 22 30 32 26 55 -5 22 0 34 17 50 13 12 27 21 32 20
24 -4 34 3 34 25 0 12 11 35 25 50 14 15 25 34 25 42 0 8 15 32 34 52 19 20
52 56 74 80 21 23 47 42 58 42 10 1 35 21 54 45 22 28 40 43 50 40 9 -3 26 9
43 30 16 20 33 33 38 29 6 -3 24 9 40 27 18 20 38 33 48 31 10 -2 21 4 24 13
4 8 15 15 26 15 11 0 25 8 30 18 7 14 18 17 44 14 29 -3 36 0 42 17 5 16 12
20 25 16 13 -4 22 1 30 14 8 16 17 19 39 15 23 -5 32 -2 40 15 9 15 21 21 47
21 22 0 37 6 40 15 4 10 21 15 55 15 35 0 51 5 59 18 10 16 10 16 20 0 16 -27
135 -26 149 0 7 14 18 18 40 14 22 -3 33 0 37 12 7 19 20 21 30 4z m-12992
-13 c9 -13 34 -14 181 -7 137 7 172 6 181 -5 6 -7 21 -13 33 -13 12 0 24 -7
27 -15 4 -9 19 -15 35 -15 19 0 29 5 29 15 0 21 68 21 76 0 4 -10 14 -13 29
-9 15 4 24 0 28 -10 4 -9 17 -16 31 -16 13 0 27 -7 30 -16 5 -13 15 -15 42
-11 25 4 37 2 41 -9 3 -10 21 -14 58 -14 39 0 54 -4 59 -16 4 -10 13 -13 26
-9 13 4 22 1 26 -9 3 -9 16 -16 28 -16 12 0 34 -14 49 -31 15 -17 33 -29 41
-26 7 3 40 -21 75 -54 34 -33 66 -57 72 -54 12 8 79 -55 79 -74 0 -8 13 -26
29 -40 104 -94 121 -113 121 -136 0 -20 5 -25 25 -25 32 0 65 -29 65 -57 0
-14 6 -23 15 -23 9 0 15 -9 15 -24 0 -13 7 -26 15 -30 8 -3 15 -17 15 -31 0
-16 6 -25 15 -25 9 0 15 -9 15 -24 0 -13 7 -26 15 -30 8 -3 15 -16 15 -30 0
-13 7 -26 15 -30 9 -3 15 -18 15 -40 0 -21 6 -36 15 -40 8 -3 15 -17 15 -31 0
-16 6 -25 15 -25 11 0 15 -11 15 -39 0 -25 5 -41 15 -45 8 -3 15 -17 15 -31 0
-16 6 -25 15 -25 12 0 15 -14 15 -65 0 -48 4 -66 16 -73 13 -7 17 -33 21 -138
3 -95 8 -132 19 -140 8 -6 14 -19 14 -29 0 -10 6 -23 14 -29 12 -9 17 -59 24
-236 8 -209 7 -226 -9 -242 -10 -10 -32 -18 -48 -18 -17 0 -34 -7 -39 -16 -13
-23 -157 -31 -166 -9 -8 22 -75 20 -92 -2 -12 -17 -13 -17 -26 0 -11 15 -21
17 -50 12 -20 -4 -39 -13 -42 -21 -7 -19 -65 -18 -72 1 -8 20 -80 20 -91 1
-10 -18 -95 -25 -101 -8 -6 18 -72 16 -72 -3 0 -21 -66 -20 -78 1 -7 13 -38
14 -283 5 -151 -6 -298 -12 -328 -13 -35 -1 -56 2 -59 10 -6 19 -148 16 -156
-3 -3 -9 -18 -15 -36 -15 -18 0 -33 6 -36 15 -9 21 -32 19 -39 -5 -8 -24 -28
-26 -45 -5 -14 17 -61 18 -338 8 l-182 -6 0 -73 c0 -55 4 -73 15 -78 9 -3 15
-18 15 -40 0 -25 6 -38 20 -46 12 -6 17 -16 13 -26 -4 -10 1 -20 10 -26 10 -5
17 -18 17 -28 0 -11 9 -24 19 -30 13 -6 17 -17 14 -30 -3 -11 -1 -20 5 -20 5
0 30 -20 55 -45 35 -34 54 -45 78 -45 24 0 42 -10 72 -41 33 -33 46 -40 70
-36 20 3 32 -2 40 -15 10 -15 20 -17 59 -12 39 5 49 3 54 -10 5 -13 21 -16 74
-16 110 0 190 11 190 26 0 10 13 14 39 14 25 0 41 5 45 15 3 8 17 15 31 15 16
0 25 6 25 15 0 9 9 15 25 15 14 0 25 3 25 8 1 15 100 112 116 112 8 0 27 14
41 30 13 17 34 30 44 30 11 0 22 7 25 15 9 22 202 22 218 0 15 -20 146 -10
146 11 0 19 17 17 24 -2 6 -15 21 -16 140 -10 116 6 134 5 139 -9 8 -19 37
-20 37 0 0 19 68 21 84 2 8 -9 42 -11 136 -7 115 5 127 3 147 -15 26 -23 31
-73 8 -81 -8 -4 -15 -16 -15 -28 0 -13 -11 -33 -25 -46 -20 -18 -25 -33 -25
-69 0 -40 -6 -52 -40 -89 -22 -24 -40 -50 -40 -59 0 -9 -18 -34 -40 -55 -22
-22 -40 -47 -40 -57 0 -9 -14 -31 -31 -49 -17 -17 -28 -36 -25 -41 10 -15 -56
-79 -84 -83 -19 -2 -24 -8 -23 -26 3 -26 -29 -62 -56 -62 -10 0 -21 -7 -25
-15 -3 -8 -17 -15 -31 -15 -14 0 -25 -4 -25 -10 0 -16 -38 -50 -56 -50 -8 0
-27 -13 -41 -30 -13 -16 -33 -30 -43 -30 -10 0 -20 -7 -24 -15 -3 -8 -16 -15
-30 -15 -13 0 -26 -7 -30 -15 -3 -9 -18 -15 -40 -15 -21 0 -36 -6 -40 -15 -3
-9 -19 -15 -41 -15 -22 0 -38 -6 -41 -15 -4 -8 -16 -15 -29 -15 -13 0 -25 -7
-29 -15 -4 -11 -20 -15 -55 -15 -34 0 -51 -4 -55 -15 -4 -11 -20 -15 -55 -15
-35 0 -53 -5 -59 -16 -6 -11 -31 -16 -97 -20 -59 -3 -92 -10 -99 -19 -16 -20
-234 -24 -246 -5 -6 10 -41 12 -170 7 -139 -5 -162 -4 -167 9 -5 12 -20 15
-71 12 -46 -2 -67 1 -69 10 -3 6 -16 12 -29 12 -14 0 -27 7 -30 15 -9 21 -47
19 -67 -5 -20 -24 -35 -26 -43 -5 -4 8 -17 15 -30 15 -14 0 -27 7 -30 15 -4 8
-17 15 -30 15 -14 0 -27 7 -31 16 -3 10 -13 14 -25 11 -11 -3 -22 0 -25 9 -3
8 -16 14 -29 14 -14 0 -27 7 -30 15 -4 8 -16 15 -29 15 -12 0 -34 11 -49 25
-15 14 -35 25 -45 25 -11 0 -21 7 -25 15 -3 8 -16 15 -28 15 -15 0 -43 21 -77
55 -29 30 -61 55 -70 55 -10 0 -31 12 -48 28 -100 88 -153 144 -153 158 0 8
-13 27 -30 41 -16 13 -30 31 -30 39 0 9 -20 34 -45 56 -25 23 -45 50 -45 60 0
10 -7 21 -15 24 -10 4 -15 19 -15 43 0 29 -6 40 -30 56 -24 16 -30 27 -30 56
0 24 -5 39 -15 43 -9 3 -15 18 -15 40 0 21 -6 36 -15 40 -9 3 -15 19 -15 41 0
22 -6 38 -15 41 -11 4 -15 21 -15 55 0 35 -4 51 -15 55 -9 4 -15 19 -15 40 0
18 -6 37 -14 41 -11 6 -17 39 -22 128 -4 77 -11 124 -19 130 -18 15 -26 245
-8 245 7 0 13 9 13 20 0 11 -6 20 -14 20 -21 0 -27 148 -7 160 10 5 14 25 12
73 -2 52 1 66 15 71 13 5 15 14 11 42 -4 25 -2 37 9 41 11 4 14 25 14 88 0 64
3 84 15 89 11 4 13 16 9 50 -6 41 -4 47 26 75 30 27 32 33 27 73 -5 39 -2 45
24 68 16 13 29 34 29 46 0 12 6 24 14 27 9 4 12 14 9 26 -3 14 0 23 11 27 9 3
16 16 16 28 0 12 18 39 40 61 22 22 39 50 40 63 0 13 6 22 15 22 9 0 15 10 15
26 0 14 12 37 28 53 15 15 65 69 111 119 60 65 92 92 108 92 13 0 23 4 23 10
0 18 34 50 55 50 11 0 29 13 40 30 12 18 29 30 41 30 12 0 24 7 28 15 3 8 17
15 31 15 16 0 25 6 25 15 0 9 9 15 24 15 13 0 26 7 30 15 3 8 16 15 30 15 13
0 26 7 30 15 3 8 15 15 26 15 11 0 23 7 26 15 4 10 20 15 45 15 28 0 39 4 39
15 0 11 11 15 39 15 25 0 41 5 45 15 4 10 20 15 52 15 30 0 51 5 58 15 8 11
39 16 126 20 86 4 118 9 126 20 6 8 20 15 32 15 11 0 22 7 26 15 7 19 36 19
50 0z m9172 0 c4 -8 13 -15 20 -15 8 0 17 7 20 15 7 18 70 21 76 4 3 -8 31
-11 85 -10 67 2 82 -1 87 -15 6 -15 17 -16 85 -10 65 5 80 4 85 -9 3 -8 16
-15 30 -15 13 0 27 -7 30 -16 5 -13 14 -15 41 -10 27 5 37 3 41 -9 3 -8 16
-15 29 -15 13 0 26 -7 29 -16 5 -13 15 -15 42 -11 25 4 37 2 41 -9 3 -7 16
-14 29 -14 14 0 27 -7 30 -15 4 -8 16 -15 29 -15 13 0 26 -7 29 -16 4 -10 13
-13 25 -9 13 4 26 -3 44 -25 14 -16 35 -30 46 -30 11 0 46 -25 78 -55 31 -31
62 -54 68 -51 7 2 45 -27 85 -65 40 -38 81 -69 91 -69 13 0 19 -7 19 -24 0
-13 7 -26 15 -30 8 -3 15 -14 15 -25 0 -11 9 -25 19 -31 11 -6 17 -17 15 -27
-3 -12 6 -25 26 -38 19 -13 30 -28 30 -43 0 -12 7 -25 15 -28 8 -4 15 -16 15
-29 0 -13 7 -25 15 -29 8 -3 15 -15 15 -26 0 -11 7 -23 15 -26 8 -4 15 -16 15
-29 0 -13 7 -25 15 -29 8 -3 15 -14 15 -25 0 -11 9 -25 20 -31 15 -8 18 -17
14 -39 -5 -23 -2 -32 15 -40 16 -9 19 -18 15 -40 -5 -23 0 -34 27 -59 31 -29
32 -34 37 -119 3 -61 8 -90 18 -96 11 -6 14 -34 14 -117 0 -94 3 -112 19 -127
17 -16 19 -42 25 -275 5 -180 4 -258 -3 -258 -6 0 -11 -11 -11 -25 0 -14 -6
-27 -12 -29 -7 -3 -161 -9 -343 -14 -283 -9 -332 -8 -341 4 -10 12 -72 12
-465 -1 -250 -8 -494 -17 -542 -20 -72 -4 -89 -2 -93 10 -9 22 -53 18 -73 -7
l-18 -22 -19 22 c-23 27 -46 28 -69 2 -22 -24 -41 -26 -49 -3 -6 14 -24 15
-172 10 -156 -6 -166 -8 -184 -29 -27 -32 -24 -59 10 -88 26 -20 30 -31 30
-71 0 -32 5 -49 15 -53 8 -3 15 -17 15 -31 0 -14 5 -25 10 -25 17 0 50 -39 50
-60 0 -11 4 -20 8 -20 5 0 48 -38 97 -85 49 -47 97 -85 107 -85 10 0 21 -7 24
-15 4 -10 14 -13 29 -9 15 4 24 0 28 -10 5 -12 22 -16 72 -16 49 0 67 -4 71
-15 4 -10 14 -13 29 -9 15 4 24 0 28 -10 9 -22 112 -23 121 -1 4 10 20 15 52
15 33 0 51 5 59 17 9 12 24 17 52 15 29 -3 44 2 57 17 11 12 27 21 36 21 10 0
20 7 24 15 3 8 15 15 26 15 12 0 33 14 48 32 15 18 49 56 76 85 45 49 53 53
93 53 34 0 49 5 63 22 17 22 19 22 37 5 24 -21 39 -22 47 -2 7 20 33 19 44 -1
8 -15 39 -15 351 -4 317 11 344 10 361 -5 21 -19 55 -13 64 10 9 25 58 17 94
-15 36 -33 39 -45 16 -54 -9 -4 -14 -13 -10 -21 3 -9 -1 -18 -9 -21 -10 -4
-15 -20 -15 -45 0 -25 -6 -41 -17 -47 -12 -7 -14 -18 -10 -40 5 -24 1 -35 -23
-58 -16 -16 -30 -39 -30 -50 0 -12 -7 -25 -16 -28 -10 -4 -14 -12 -10 -23 5
-11 -3 -26 -24 -44 -16 -15 -30 -36 -30 -47 0 -10 -11 -29 -25 -42 -14 -13
-25 -31 -25 -41 0 -25 -64 -89 -89 -89 -11 0 -21 -4 -21 -8 0 -20 -122 -137
-140 -134 -9 2 -20 -4 -23 -13 -4 -8 -15 -15 -25 -15 -10 0 -28 -13 -40 -30
-15 -19 -31 -30 -47 -30 -14 0 -25 -6 -25 -13 0 -18 -37 -47 -59 -47 -10 0
-21 -7 -25 -15 -3 -8 -17 -15 -31 -15 -16 0 -25 -6 -25 -15 0 -9 -9 -15 -24
-15 -13 0 -26 -7 -30 -15 -3 -9 -18 -15 -40 -15 -23 0 -38 -6 -45 -17 -9 -17
-11 -17 -24 1 -14 19 -37 15 -37 -5 0 -6 -7 -17 -15 -25 -12 -12 -18 -12 -35
-2 -18 11 -23 10 -31 -4 -7 -13 -23 -18 -58 -18 -34 0 -51 -5 -55 -15 -4 -11
-22 -15 -71 -15 -48 0 -65 -4 -65 -13 0 -11 -31 -15 -127 -20 -216 -11 -260
-10 -268 11 -6 16 -8 15 -23 -4 -15 -17 -30 -21 -105 -23 -72 -2 -88 1 -93 14
-4 10 -13 13 -25 10 -12 -4 -21 -1 -25 9 -5 13 -23 16 -89 16 -62 0 -84 4 -88
14 -4 9 -14 12 -26 9 -14 -3 -23 0 -27 11 -8 22 -94 23 -94 1 0 -8 -5 -15 -10
-15 -6 0 -13 7 -16 15 -4 8 -15 15 -27 15 -11 0 -38 18 -59 40 -22 22 -48 40
-58 40 -9 0 -23 6 -30 14 -6 8 -18 12 -26 9 -7 -3 -17 2 -20 11 -8 20 -30 21
-42 0 -7 -13 -15 -9 -49 24 -22 22 -50 42 -61 44 -17 2 -87 65 -334 299 -21
20 -38 46 -38 58 0 12 -6 21 -15 21 -9 0 -15 9 -15 23 0 14 -12 32 -30 45 -19
15 -30 31 -30 47 0 14 -4 25 -10 25 -23 0 -50 41 -50 75 0 24 -5 35 -15 35 -9
0 -15 9 -15 25 0 14 -7 28 -15 31 -9 4 -15 19 -15 40 0 22 -6 37 -15 40 -8 4
-15 17 -15 30 0 13 -8 28 -19 33 -13 8 -17 18 -13 37 3 19 -1 31 -12 40 -12 9
-18 30 -21 75 -2 44 -8 65 -19 71 -13 7 -16 28 -16 110 0 80 -3 103 -16 112
-12 10 -17 53 -24 251 l-9 240 30 27 29 28 -7 116 c-6 105 -4 117 11 126 16 9
17 19 11 74 -6 55 -4 64 9 64 11 0 16 9 16 29 0 17 6 31 16 35 13 5 15 15 10
52 -5 42 -3 48 25 74 21 18 30 34 26 45 -4 9 -1 18 8 21 8 4 15 17 15 30 0 14
7 27 15 30 8 4 15 16 15 29 0 13 7 26 16 29 8 3 14 14 12 24 -3 20 54 92 73
92 7 0 9 9 5 25 -5 18 -2 27 9 31 8 4 15 17 15 30 0 17 6 24 20 24 24 0 71 46
65 63 -7 18 60 87 84 87 12 0 21 3 21 8 1 4 22 31 49 60 32 35 54 50 64 46 10
-3 20 2 27 16 6 11 17 19 23 18 7 -2 38 24 70 57 46 49 62 59 85 57 21 -2 33
4 50 27 18 24 30 31 57 31 24 0 38 6 45 19 8 15 17 18 49 14 32 -4 43 -1 57
16 12 13 30 21 52 21 20 0 35 6 38 15 4 11 21 15 55 15 35 0 51 4 55 15 4 8
16 15 29 15 13 0 25 7 29 15 3 8 14 15 25 15 10 0 21 -7 25 -15 8 -22 53 -19
66 4 6 13 17 17 30 14 14 -4 20 0 20 10 0 13 14 17 63 20 142 8 147 7 153 -8z
m-4541 -12 c6 -7 32 -13 60 -15 l50 -3 3 -140 c2 -77 6 -204 10 -282 6 -121 5
-145 -8 -156 -13 -11 -14 -41 -9 -211 6 -177 5 -201 -10 -216 -22 -24 -247
-36 -255 -14 -8 22 -143 20 -148 -2 -2 -13 -17 -17 -67 -19 -47 -2 -66 -7 -73
-19 -7 -12 -24 -16 -72 -16 -48 0 -65 -4 -70 -15 -3 -8 -14 -15 -24 -15 -10 0
-28 -13 -40 -30 -15 -19 -31 -30 -47 -30 -14 0 -25 -5 -25 -10 0 -6 -31 -43
-70 -82 -38 -40 -70 -79 -70 -89 0 -9 -6 -22 -14 -28 -8 -7 -12 -21 -9 -31 4
-14 0 -20 -11 -20 -11 0 -16 -9 -16 -29 0 -17 -6 -31 -16 -35 -14 -5 -16 -16
-11 -55 4 -38 2 -51 -9 -55 -9 -3 -14 -20 -14 -46 0 -28 -4 -40 -15 -40 -12 0
-13 -23 -8 -153 l6 -153 -27 -21 c-20 -17 -26 -29 -26 -62 0 -30 4 -41 15 -41
19 0 19 -17 0 -27 -13 -8 -14 -53 0 -408 13 -358 13 -399 -1 -409 -13 -10 -14
-34 -7 -185 7 -158 7 -174 -9 -182 -19 -10 -13 -39 8 -39 11 0 14 -19 14 -87
-1 -83 -2 -90 -30 -120 l-29 -32 -253 -10 c-213 -8 -255 -7 -264 5 -17 21
-110 19 -123 -3 -8 -15 -11 -15 -26 -3 -10 8 -34 13 -60 11 -31 -2 -44 2 -48
13 -9 23 -105 22 -122 0 -24 -34 -59 -25 -114 27 l-51 49 -1 117 c-1 65 -4
183 -8 263 -6 120 -4 147 8 157 12 10 13 44 8 203 -5 160 -4 191 9 198 12 7
13 35 6 192 -7 149 -6 187 5 196 19 16 16 54 -4 70 -17 12 -17 13 0 19 9 4 17
18 17 31 0 12 -8 28 -17 33 -17 10 -17 12 -1 24 15 12 16 35 7 283 -27 752
-27 748 -11 761 13 10 14 38 8 175 -6 118 -11 165 -21 173 -19 14 -23 139 -5
160 10 12 12 54 7 190 l-6 175 24 0 c13 0 25 6 27 13 3 9 64 15 219 22 200 10
215 10 229 -7 17 -20 55 -15 65 10 5 13 7 13 19 -3 12 -16 27 -17 237 -9 276
11 268 14 269 -95 0 -66 3 -76 26 -97 28 -27 74 -32 74 -9 0 9 9 15 23 16 14
0 35 16 57 44 21 26 44 44 56 44 12 1 31 15 44 31 18 23 31 30 57 30 21 0 36
6 39 15 4 11 21 15 55 15 35 0 51 4 55 15 4 9 19 15 40 15 23 0 37 6 44 20 13
24 38 26 46 5 4 -8 15 -15 25 -15 10 0 19 7 19 15 0 11 11 15 39 15 25 0 41 5
45 15 4 11 21 15 65 15 43 0 60 -4 65 -15 8 -21 33 -19 38 3 4 14 16 17 64 17
35 0 63 -5 69 -12z m315 -1903 c0 -5 -9 -10 -20 -10 -11 0 -20 5 -20 10 0 6 9
10 20 10 11 0 20 -4 20 -10z m8248 -43 c4 -20 -25 -34 -40 -19 -15 15 -1 44
19 40 10 -2 19 -11 21 -21z m-8140 -9 c-3 -7 -11 -13 -18 -13 -7 0 -15 6 -17
13 -3 7 4 12 17 12 13 0 20 -5 18 -12z m2247 -1145 c0 -51 -2 -58 -20 -58 -17
0 -20 8 -23 59 -2 40 1 62 10 67 22 14 33 -8 33 -68z m-6851 -1188 c3 -8 12
-15 21 -15 9 0 18 7 21 15 9 22 120 21 132 -2 7 -12 17 -14 41 -10 23 5 33 3
37 -8 4 -10 20 -15 45 -15 27 0 42 -5 46 -16 5 -14 18 -16 100 -10 81 6 94 5
99 -9 5 -13 18 -16 57 -14 33 2 52 -1 55 -9 2 -7 15 -12 28 -12 14 0 27 -7 30
-15 4 -10 20 -15 44 -15 29 0 43 -6 58 -25 11 -14 29 -25 41 -25 12 0 24 -7
27 -15 4 -8 16 -15 29 -15 12 0 28 -6 35 -14 6 -8 18 -12 27 -9 9 4 19 -1 25
-10 5 -10 18 -17 28 -17 11 0 38 -18 60 -40 22 -22 49 -40 60 -40 11 0 23 -7
26 -15 4 -8 17 -15 30 -15 19 0 24 -5 24 -25 0 -14 6 -25 13 -25 17 0 47 -36
47 -58 0 -9 14 -26 30 -37 19 -12 30 -29 30 -43 0 -12 7 -25 15 -28 8 -4 15
-17 15 -30 0 -15 6 -24 15 -24 9 0 15 -9 15 -25 0 -14 7 -28 15 -31 8 -4 15
-16 15 -29 0 -13 7 -25 15 -29 8 -3 15 -15 15 -26 0 -11 7 -23 15 -26 11 -5
15 -22 15 -70 0 -48 4 -65 16 -72 22 -13 29 -68 9 -76 -21 -8 -19 -53 3 -66
16 -10 16 -10 0 -20 -27 -16 -25 -105 2 -120 12 -6 17 -16 13 -26 -3 -8 2 -21
13 -28 22 -17 28 -95 7 -103 -18 -7 -16 -60 2 -67 8 -3 15 -14 15 -25 0 -10
-7 -21 -15 -25 -20 -7 -19 -46 3 -62 14 -11 15 -15 3 -23 -15 -10 -16 -130 -2
-426 6 -125 5 -152 -7 -162 -13 -11 -13 -64 -2 -415 6 -222 15 -465 19 -540 5
-124 4 -139 -11 -153 -23 -19 -23 -30 2 -55 12 -12 20 -33 20 -55 0 -19 3 -35
8 -35 15 0 82 -70 82 -86 0 -9 7 -22 17 -29 21 -16 10 -45 -17 -45 -11 0 -23
-7 -26 -15 -8 -20 -41 -19 -52 1 -8 15 -30 16 -223 7 -172 -7 -216 -6 -225 4
-17 20 -81 16 -94 -4 -9 -17 -11 -17 -21 0 -10 17 -24 18 -202 12 -106 -3
-201 -8 -212 -10 -26 -5 -95 56 -95 83 0 11 -7 22 -15 26 -8 3 -15 17 -15 31
0 15 -6 25 -14 25 -8 0 -16 7 -20 15 -3 10 -19 15 -45 15 -31 0 -41 -4 -46
-20 -5 -15 -12 -19 -26 -15 -32 10 -58 -4 -61 -33 -3 -24 -7 -27 -35 -24 -24
3 -34 -2 -43 -18 -7 -14 -17 -19 -27 -16 -10 4 -21 -2 -30 -13 -7 -11 -20 -18
-28 -15 -7 3 -18 -4 -25 -15 -8 -16 -17 -20 -34 -15 -16 4 -30 -1 -42 -14 -11
-11 -32 -20 -48 -20 -17 0 -35 -7 -42 -17 -12 -17 -14 -17 -20 -2 -8 21 -33
22 -40 2 -4 -9 -19 -15 -40 -15 -22 0 -37 -6 -40 -15 -5 -12 -24 -15 -85 -15
-46 0 -79 4 -79 10 0 18 -57 11 -65 -7 -6 -17 -7 -17 -20 0 -12 17 -26 19
-131 16 -86 -3 -119 0 -122 9 -2 7 -21 12 -43 12 -26 0 -42 5 -45 15 -9 21
-41 19 -61 -5 -24 -27 -37 -25 -68 11 -23 29 -30 31 -70 26 -43 -4 -47 -2 -86
40 -23 25 -47 42 -54 39 -8 -2 -19 2 -25 10 -7 8 -23 14 -35 14 -13 0 -25 7
-29 15 -3 8 -15 15 -27 15 -12 0 -33 12 -47 27 -14 15 -33 27 -42 28 -28 0
-200 166 -200 193 0 13 -6 22 -15 22 -9 0 -15 9 -16 23 0 14 -16 35 -44 57
-26 21 -44 44 -44 56 -1 12 -8 24 -16 28 -12 4 -15 25 -15 101 0 78 -3 95 -15
95 -9 0 -15 9 -15 25 0 14 -8 29 -20 35 -11 6 -19 14 -16 18 2 4 0 104 -4 222
l-9 215 31 28 c27 26 30 33 25 74 -3 32 -1 46 9 50 8 3 14 16 14 29 0 12 7 27
17 32 9 6 14 16 10 25 -3 9 1 21 9 27 8 7 14 21 14 32 0 11 25 44 55 75 30 31
55 63 55 72 0 24 64 93 81 86 9 -3 27 12 49 40 23 29 43 44 58 45 12 0 25 7
28 15 4 8 16 15 28 15 12 0 27 9 34 20 6 11 18 17 26 14 8 -3 19 3 25 14 7 14
18 18 40 14 22 -3 32 1 41 17 8 15 17 20 30 16 12 -4 22 0 28 11 7 13 26 19
73 21 42 3 66 9 72 18 4 8 16 15 26 15 11 0 21 7 25 15 4 11 22 15 70 15 47 0
65 4 70 15 4 11 23 15 80 15 66 0 77 3 86 20 8 14 17 19 30 15 12 -4 22 0 29
13 9 16 24 19 112 21 74 1 106 6 113 16 14 18 148 24 154 7 5 -17 39 -15 46 3
3 8 15 15 26 15 11 0 23 7 26 15 5 12 27 15 114 15 95 0 109 2 112 17 2 14 12
17 50 14 39 -2 48 1 58 19 7 13 17 19 27 16 10 -4 28 9 53 36 36 42 38 45 33
103 -3 34 -11 65 -19 71 -8 6 -14 20 -14 30 0 10 -14 28 -30 39 -16 11 -30 26
-30 33 0 9 -11 13 -35 11 -19 -2 -40 2 -47 9 -6 6 -22 12 -34 12 -12 0 -24 7
-28 15 -3 10 -19 15 -46 15 -29 0 -40 4 -40 15 0 22 -28 18 -35 -5 -7 -23 -40
-27 -49 -5 -4 11 -22 15 -72 15 -56 0 -69 -3 -85 -22 l-20 -23 -15 23 c-20 27
-45 28 -69 2 -10 -12 -25 -18 -32 -16 -7 3 -17 -3 -23 -12 -8 -12 -13 -14 -16
-4 -8 17 -44 15 -44 -3 0 -9 -9 -15 -24 -15 -13 0 -26 -7 -30 -15 -3 -8 -17
-15 -31 -15 -20 0 -25 -5 -25 -23 0 -15 -21 -45 -56 -82 -51 -54 -55 -62 -53
-100 2 -30 -3 -48 -17 -63 -18 -19 -31 -21 -174 -23 -108 -1 -155 1 -158 10
-6 17 -42 13 -42 -4 0 -22 -95 -21 -104 1 -9 24 -135 14 -149 -12 -9 -16 -10
-16 -23 1 -12 16 -25 18 -144 12 -108 -5 -132 -3 -137 9 -3 8 -16 14 -29 14
-19 0 -24 5 -24 24 0 13 -7 26 -15 30 -20 7 -19 42 1 50 10 4 13 13 9 26 -4
13 -1 22 9 26 12 5 16 20 16 60 0 43 3 54 16 54 14 0 16 7 11 41 -4 29 -1 42
9 46 9 3 14 20 14 43 0 24 5 40 15 44 8 3 15 16 15 30 0 13 7 27 16 30 10 4
13 13 9 26 -4 13 -1 22 9 26 9 3 16 17 16 30 0 12 7 27 17 32 9 6 14 16 10 25
-4 10 5 25 23 41 17 14 30 34 30 45 0 24 33 61 54 61 20 0 105 91 106 113 0
29 37 57 75 57 19 0 35 5 35 10 0 22 41 50 74 50 21 0 36 6 40 15 3 9 19 15
41 15 22 0 38 6 41 15 4 9 19 15 40 15 22 0 37 6 43 19 8 13 18 17 37 13 19
-3 31 1 41 14 10 14 26 19 59 19 32 0 50 6 59 18 10 15 31 17 153 17 125 0
142 2 154 18 18 25 182 32 191 7 8 -19 37 -20 37 -1 0 8 12 17 28 19 15 2 30
5 33 6 4 0 9 -6 13 -14z m4100 -10 c4 -10 22 -12 79 -8 111 8 112 6 121 -191
5 -135 4 -157 -9 -162 -22 -9 -20 -80 2 -92 21 -13 27 -98 7 -106 -19 -7 -18
-32 1 -40 22 -8 22 -151 0 -160 -20 -7 -10 -75 14 -93 14 -10 14 -12 -2 -19
-16 -6 -18 -17 -16 -83 2 -68 0 -76 -17 -79 -10 -2 -25 -11 -31 -20 -12 -14
-14 -14 -26 2 -12 16 -22 17 -75 11 -41 -5 -65 -13 -72 -23 -9 -16 -11 -16
-20 1 -9 13 -25 17 -74 17 -119 0 -216 -12 -216 -26 0 -10 -13 -14 -39 -14
-25 0 -41 -5 -45 -15 -3 -9 -19 -15 -41 -15 -22 0 -38 -6 -41 -15 -4 -8 -17
-15 -30 -15 -13 0 -24 -3 -24 -7 0 -15 -69 -83 -84 -83 -22 0 -56 -36 -56 -58
0 -10 -13 -32 -29 -48 -16 -15 -27 -34 -24 -41 3 -6 -10 -26 -27 -43 -29 -29
-32 -36 -27 -77 3 -32 1 -46 -9 -50 -8 -3 -14 -16 -14 -29 0 -14 -11 -32 -30
-46 -31 -23 -40 -48 -16 -48 10 0 15 -18 18 -62 4 -59 3 -64 -25 -89 l-29 -27
7 -116 c7 -102 5 -116 -9 -122 -23 -9 -23 -109 1 -122 22 -13 29 -102 8 -102
-8 0 -15 -9 -15 -20 0 -11 6 -20 14 -20 21 0 27 -148 7 -160 -13 -7 -13 -62
-2 -410 11 -334 10 -404 -1 -411 -10 -6 -12 -34 -9 -113 4 -125 -4 -139 -78
-141 -244 -8 -295 -8 -299 3 -5 17 -62 15 -68 -3 -4 -11 -21 -15 -55 -15 -37
0 -49 4 -49 15 0 22 -76 21 -89 -2 -8 -14 -12 -15 -25 -4 -13 11 -54 13 -191
9 -139 -4 -175 -2 -175 8 0 8 -16 14 -42 16 -34 2 -42 7 -40 20 1 9 -7 22 -18
28 -24 13 -26 38 -5 46 19 8 19 31 1 41 -23 12 -24 196 -3 218 10 9 15 26 12
43 -2 15 -9 205 -15 422 -6 217 -13 416 -16 443 -4 38 -2 47 11 47 8 0 15 9
15 20 0 11 -7 20 -15 20 -8 0 -15 8 -15 19 0 10 7 24 15 31 23 19 19 77 -5 90
-24 13 -26 38 -4 47 15 6 16 27 10 226 -6 204 -6 220 11 233 17 13 17 15 -1
29 -27 20 -34 114 -10 132 15 11 15 37 6 285 -10 241 -9 274 4 285 23 17 9
329 -15 343 -15 9 -14 11 1 23 15 12 16 28 10 156 -5 104 -4 145 5 149 6 4 13
18 15 32 2 17 10 26 26 28 13 2 26 10 29 18 7 19 69 19 77 -1 8 -23 51 -18 69
8 14 22 15 22 36 3 20 -18 35 -18 293 -12 150 3 312 9 361 12 79 6 87 5 87
-11 0 -15 6 -17 40 -12 22 3 40 2 40 -1 5 -164 18 -192 90 -192 22 0 40 3 40
8 0 16 70 82 88 82 11 0 22 7 26 15 3 8 17 15 31 15 16 0 25 6 25 15 0 9 9 15
24 15 13 0 26 7 30 15 3 8 17 15 31 15 16 0 25 6 25 15 0 12 13 15 55 15 42 0
55 3 55 15 0 11 11 15 40 15 29 0 40 4 40 15 0 20 26 19 34 -1 5 -13 15 -15
54 -9 26 3 52 13 58 21 8 10 33 14 85 14 63 0 76 3 87 20 12 20 37 18 46 -5z
m7576 -1865 c0 -11 -4 -20 -9 -20 -14 0 -23 18 -16 30 10 17 25 11 25 -10z
m3100 -1434 c0 -11 -19 -15 -25 -6 -3 5 1 10 9 10 9 0 16 -2 16 -4z"/>
<path d="M6078 19146 l-277 -11 -36 -35 -37 -35 4 -89 c2 -65 0 -90 -9 -93
-18 -6 -16 -30 2 -37 21 -8 21 -148 0 -166 -17 -14 -9 -71 12 -83 19 -11 18
-126 -1 -141 -12 -9 -13 -47 -6 -238 8 -212 10 -228 30 -248 21 -21 23 -21
258 -13 200 8 240 7 254 -5 25 -21 407 -8 424 14 7 8 29 14 57 14 38 0 49 5
70 30 14 17 32 30 39 30 19 0 121 107 114 119 -4 5 7 24 24 41 16 17 30 39 30
49 0 10 6 24 14 30 9 8 12 25 8 56 -3 35 -1 46 12 51 9 3 16 16 16 28 0 12 5
27 12 34 18 18 12 263 -8 278 -8 6 -14 25 -14 43 0 19 -6 34 -15 37 -8 4 -15
17 -15 30 0 14 -7 27 -15 30 -8 4 -15 14 -15 23 0 20 -159 171 -181 171 -9 0
-22 6 -29 14 -6 8 -17 13 -24 10 -7 -3 -19 2 -26 11 -7 8 -27 15 -45 15 -18 0
-38 6 -44 13 -8 11 -36 13 -114 9 -86 -4 -105 -2 -116 12 -8 9 -26 15 -45 14
-17 -1 -156 -6 -308 -12z"/>
<path d="M6063 14826 c-177 -7 -324 -14 -327 -16 -2 -3 -1 -95 4 -205 7 -174
6 -202 -8 -212 -13 -11 -14 -36 -8 -185 6 -132 11 -176 22 -184 18 -14 18 -44
0 -58 -12 -9 -13 -47 -6 -226 7 -193 6 -215 -8 -227 -16 -12 -16 -14 1 -27 20
-16 22 -45 3 -60 -11 -9 -12 -59 -4 -308 10 -269 9 -299 -6 -313 -21 -21 -20
-32 4 -52 24 -21 26 -49 4 -57 -13 -5 -14 -31 -8 -224 5 -161 4 -221 -5 -226
-18 -11 -15 -135 4 -142 8 -4 15 -15 15 -26 0 -11 10 -28 23 -39 21 -18 34
-19 208 -13 176 6 187 6 197 -12 10 -18 11 -18 24 -1 9 12 33 19 81 24 57 5
70 3 88 -13 19 -17 21 -18 30 -1 12 21 42 22 59 2 16 -19 29 -19 51 1 10 9 44
18 78 21 34 3 66 12 72 19 7 8 31 14 56 14 30 0 45 5 49 15 5 11 22 15 69 15
47 0 64 4 69 15 3 9 18 15 38 15 28 0 42 10 87 60 30 33 61 60 69 60 19 0 143
132 137 147 -2 6 3 17 11 23 8 7 14 21 14 31 0 11 18 36 40 58 22 21 40 48 40
60 0 12 7 24 15 27 8 4 15 16 15 29 0 12 7 28 15 35 11 9 14 22 10 42 -5 20
-2 30 9 34 11 4 16 19 16 44 0 22 7 43 16 51 11 9 14 22 10 41 -4 20 -1 30 9
34 20 8 19 30 -2 38 -14 6 -12 11 14 39 l31 32 -10 297 c-10 271 -10 298 5
313 22 22 21 31 -5 50 -22 15 -22 17 -5 29 22 17 25 131 4 139 -10 4 -16 34
-20 98 -4 69 -10 95 -21 101 -9 5 -16 17 -16 27 0 10 -7 24 -15 31 -8 7 -15
27 -15 45 0 20 -6 35 -15 39 -8 3 -15 15 -15 26 0 11 -7 23 -15 26 -10 4 -15
21 -15 54 0 41 -4 52 -30 73 -16 14 -30 33 -30 42 0 9 -13 28 -30 42 -16 13
-30 31 -30 39 0 9 -20 34 -45 56 -25 23 -45 47 -45 54 0 26 -69 84 -101 84
-18 0 -40 10 -57 25 -15 14 -34 25 -43 25 -9 0 -23 7 -30 16 -10 12 -25 15
-56 11 -29 -3 -46 0 -54 9 -6 8 -19 14 -29 14 -10 0 -23 7 -30 15 -8 10 -30
15 -61 15 -26 0 -51 5 -54 10 -9 15 -41 12 -55 -5 -7 -8 -21 -15 -32 -15 -10
0 -21 7 -24 15 -5 11 -20 15 -58 13 -28 0 -196 -6 -373 -12z"/>
<path d="M10270 18073 c-43 -3 -68 -9 -73 -19 -4 -7 -16 -14 -26 -14 -10 0
-24 -7 -31 -15 -8 -9 -29 -15 -55 -15 -39 0 -47 -5 -82 -45 -21 -25 -45 -45
-54 -45 -9 0 -50 -37 -92 -82 -66 -71 -75 -85 -70 -110 4 -20 1 -29 -11 -34
-20 -8 -21 -30 -1 -38 9 -3 15 -18 15 -38 1 -24 8 -38 27 -52 23 -17 37 -18
137 -12 81 5 113 10 119 21 11 21 132 21 140 1 5 -12 30 -14 151 -9 110 5 149
3 161 -7 12 -10 18 -10 30 0 12 10 19 10 27 2 18 -18 232 -16 248 2 6 8 21 16
33 18 15 2 23 11 25 28 2 14 10 29 18 33 22 13 18 90 -6 112 -11 10 -17 21
-15 25 3 5 -9 23 -27 41 -18 18 -33 38 -33 46 0 19 -125 133 -146 133 -9 0
-22 7 -29 15 -7 8 -27 15 -46 15 -18 0 -36 5 -39 10 -3 6 -41 10 -84 10 -58 0
-82 4 -91 15 -7 8 -22 14 -34 13 -11 -1 -50 -3 -86 -5z"/>
<path d="M19368 18043 c-87 -3 -119 -7 -128 -18 -7 -9 -30 -15 -55 -15 -26 0
-48 -6 -55 -15 -7 -8 -20 -15 -29 -15 -9 0 -28 -13 -41 -30 -14 -16 -32 -29
-40 -30 -24 0 -90 -73 -90 -98 0 -15 -6 -22 -20 -22 -25 0 -60 -34 -60 -59 0
-10 -7 -24 -15 -31 -9 -7 -14 -19 -11 -26 3 -7 -2 -18 -10 -24 -18 -16 -18
-56 0 -63 8 -3 16 -16 18 -29 3 -26 -34 -26 478 -8 233 8 266 7 281 -6 15 -13
35 -15 129 -9 102 7 112 6 125 -11 14 -18 16 -18 29 -1 7 9 26 17 42 17 57 0
88 77 49 120 -8 9 -15 29 -15 44 0 18 -10 36 -30 53 -16 13 -30 32 -30 41 -1
10 -14 28 -30 42 -17 13 -30 31 -30 40 0 23 -32 50 -57 50 -12 0 -23 7 -27 15
-3 8 -17 15 -31 15 -14 0 -25 5 -25 10 0 6 -17 10 -38 10 -30 0 -43 6 -62 30
-21 24 -32 29 -65 27 -22 -1 -92 -3 -157 -4z"/>
<path d="M10946 12575 c-4 -11 -21 -15 -64 -15 -39 0 -64 -5 -71 -14 -7 -8
-40 -17 -73 -21 -34 -4 -68 -14 -76 -21 -10 -10 -42 -14 -113 -14 -79 0 -101
-3 -105 -15 -4 -9 -19 -15 -40 -15 -22 0 -37 -6 -40 -15 -4 -9 -19 -15 -39
-15 -18 0 -38 -7 -45 -15 -7 -8 -21 -15 -32 -15 -10 0 -21 -7 -24 -15 -4 -8
-14 -15 -24 -15 -10 0 -23 -7 -30 -15 -7 -8 -19 -15 -28 -15 -8 0 -37 -23 -63
-51 l-49 -50 0 -113 c0 -100 2 -115 20 -131 11 -10 17 -22 13 -27 -7 -12 76
-88 95 -88 7 0 25 -11 40 -25 15 -14 34 -25 43 -25 9 0 22 -7 30 -16 15 -18
68 -12 81 9 6 9 12 9 28 0 12 -8 59 -13 128 -13 96 0 111 2 127 20 13 14 31
20 60 20 26 0 48 6 55 15 7 8 20 15 30 15 10 0 20 7 24 15 3 8 14 15 24 15 11
0 25 7 32 15 7 8 19 15 26 15 8 0 40 28 72 62 31 33 72 75 90 93 17 18 32 40
32 50 0 10 12 28 26 41 l25 24 -7 172 c-7 158 -9 174 -28 190 -28 23 -141 26
-150 3z"/>
</g>
</svg>
